<?xml version="1.0" encoding="iso-8859-1"?>
<!-- Uploaded to: SVG Repo, www.svgrepo.com, Generator: SVG Repo Mixer Tools -->
<svg version="1.1" id="Layer_1" xmlns="http://www.w3.org/2000/svg" xmlns:xlink="http://www.w3.org/1999/xlink" 
	 viewBox="0 0 390.335 390.335" xml:space="preserve">
<g>
	<rect x="80.743" y="192.485" style="fill:#56ACE0;" width="89.406" height="176.162"/>
	<path style="fill:#56ACE0;" d="M361.503,154.02v214.626H191.871V181.624c0-5.947-4.848-10.861-10.861-10.861H69.883
		c-5.947,0-10.861,4.848-10.861,10.861v186.958H30.901V153.956c3.232,1.099,7.046,1.616,10.861,1.616
		c11.895,0,23.273-5.43,30.901-13.576c7.564,8.145,18.424,13.576,30.901,13.576c11.895,0,23.273-5.43,30.901-13.576
		c7.564,8.145,18.424,13.576,30.901,13.576c11.895,0,23.273-5.43,30.901-13.576c7.564,8.145,18.424,13.576,30.901,13.576
		c11.895,0,23.273-5.43,30.901-13.576c7.564,8.145,18.424,13.576,30.901,13.576c11.895,0,23.273-5.43,30.901-13.576
		c7.564,8.145,18.424,13.576,30.901,13.576C354.457,155.636,357.689,155.119,361.503,154.02z"/>
</g>
<path style="fill:#FFFFFF;" d="M61.22,113.875V85.689H21.657v28.186c0,10.861,8.663,20.04,20.04,20.04
	C52.558,133.98,61.22,124.735,61.22,113.875z"/>
<g>
	<path style="fill:#FFC10D;" d="M82.941,113.875c0,10.861,8.663,20.04,20.04,20.04s20.04-8.663,20.04-20.04V85.689H82.941V113.875z"
		/>
	<path style="fill:#FFC10D;" d="M245.527,113.875V85.689h-39.564v28.186c0,10.861,8.663,20.04,20.04,20.04
		C236.865,133.98,245.527,124.735,245.527,113.875z"/>
</g>
<path style="fill:#FFFFFF;" d="M306.747,113.875V85.689h-39.564v28.186c0,10.861,8.663,20.04,20.04,20.04
	S306.747,124.735,306.747,113.875z"/>
<g>
	<path style="fill:#FFC10D;" d="M368.549,113.875V85.689h-39.564v28.186c0,10.861,8.663,20.04,20.04,20.04
		C359.887,133.98,368.549,124.735,368.549,113.875z"/>
	<polygon style="fill:#FFC10D;" points="67.749,64.032 106.214,21.754 102.4,21.754 43.895,64.032 	"/>
</g>
<polygon style="fill:#FFFFFF;" points="126.836,64.032 146.295,21.754 135.499,21.754 97.034,64.032 "/>
<polygon style="fill:#FFC10D;" points="184.242,64.032 184.242,21.754 170.149,21.754 150.691,64.032 "/>
<polygon style="fill:#FFFFFF;" points="220.057,21.754 205.964,21.754 205.964,64.032 239.515,64.032 "/>
<polygon style="fill:#FFC10D;" points="293.172,64.032 254.707,21.754 243.911,21.754 263.37,64.032 "/>
<polygon style="fill:#FFFFFF;" points="283.992,21.754 322.457,64.032 346.311,64.032 287.806,21.754 "/>
<rect x="80.743" y="192.485" style="fill:#FFC10D;" width="89.406" height="176.162"/>
<path style="fill:#194F82;" d="M385.875,66.23l-88.307-64c-1.616-1.099-4.331-2.198-6.529-2.198H98.651
	c-2.198,0-4.331,0.517-6.529,2.198l-87.79,64C1.616,68.428,0,71.661,0,74.893v39.046c0,9.762,3.232,18.941,9.244,25.988v239.515
	c0,5.947,4.848,10.861,10.861,10.861H370.23c5.947,0,10.861-4.848,10.861-10.861V139.927c5.947-7.046,9.244-16.226,9.244-25.988
	V74.893C390.206,71.596,388.59,68.364,385.875,66.23z M287.224,21.754l58.505,42.279h-23.273L283.41,21.754
	C283.41,21.754,287.224,21.754,287.224,21.754z M254.707,21.754l39.046,42.279h-29.802l-19.523-42.279
	C244.428,21.754,254.707,21.754,254.707,21.754z M306.747,85.754v28.186c0,10.861-8.663,20.04-20.04,20.04
	c-11.378,0-19.523-9.244-19.523-20.04V85.754C267.184,85.754,306.747,85.754,306.747,85.754z M205.964,21.754h14.093l19.523,42.279
	h-33.616V21.754z M205.964,85.754h39.564v28.186c0,10.861-8.663,20.04-20.04,20.04c-10.861,0-19.523-9.244-19.523-20.04V85.754z
	 M170.149,21.754h14.093v42.279h-33.616L170.149,21.754z M146.295,21.754l-19.523,42.279H96.97l39.046-42.279
	C136.016,21.754,146.295,21.754,146.295,21.754z M123.022,85.754v28.186c0,10.861-8.663,20.04-20.04,20.04s-20.04-8.663-20.04-20.04
	V85.754C82.941,85.754,123.022,85.754,123.022,85.754z M102.4,21.754h3.814L67.749,64.032H43.895L102.4,21.754z M21.657,113.939
	V85.754H61.22v28.186c0,10.861-8.663,20.04-20.04,20.04C30.319,133.98,21.657,124.735,21.657,113.939z M170.149,368.646H80.743
	V192.485h89.406L170.149,368.646L170.149,368.646z M361.503,368.646H191.871V181.624c0-5.947-4.848-10.861-10.861-10.861H69.883
	c-5.947,0-10.861,4.848-10.861,10.861v186.958H30.901V153.956c3.232,1.099,7.046,1.616,10.861,1.616
	c11.895,0,23.273-5.43,30.901-13.576c7.564,8.145,18.424,13.576,30.901,13.576c11.895,0,23.273-5.43,30.901-13.576
	c7.564,8.145,18.424,13.576,30.901,13.576c11.895,0,23.273-5.43,30.901-13.576c7.564,8.145,18.424,13.576,30.901,13.576
	c11.895,0,23.273-5.43,30.901-13.576c7.564,8.145,18.424,13.576,30.901,13.576c11.895,0,23.273-5.43,30.901-13.576
	c7.564,8.145,18.424,13.576,30.901,13.576c3.814,0,7.046-0.517,10.861-1.616v214.691H361.503z M368.549,113.939
	c0,10.861-8.663,20.04-20.04,20.04c-10.861,0-19.523-9.244-19.523-20.04V85.754h39.564V113.939z"/>
<rect x="237.899" y="221.77" style="fill:#FFFFFF;" width="76.929" height="60.703"/>
<path style="fill:#194F82;" d="M325.689,200.048h-98.586c-5.947,0-10.861,4.848-10.861,10.861v82.36
	c0,5.947,4.848,10.861,10.861,10.861h98.586c5.947,0,10.861-4.848,10.861-10.861v-82.36
	C336.549,204.962,331.701,200.048,325.689,200.048z M314.893,282.473h-76.929V221.77h76.929V282.473L314.893,282.473z"/>
<path style="fill:#FFFFFF;" d="M144.679,113.875c0,10.861,8.663,20.04,20.04,20.04s20.04-8.663,20.04-20.04V85.689h-40.081V113.875z
	"/>
</svg>