<?xml version="1.0" encoding="UTF-8"?>
<!DOCTYPE svg PUBLIC "-//W3C//DTD SVG 1.1//EN" "http://www.w3.org/Graphics/SVG/1.1/DTD/svg11.dtd">
<!-- Creator: CorelDRAW -->
<svg xmlns="http://www.w3.org/2000/svg" xml:space="preserve" width="1.70666in" height="1.70666in" version="1.1" style="shape-rendering:geometricPrecision; text-rendering:geometricPrecision; image-rendering:optimizeQuality; fill-rule:evenodd; clip-rule:evenodd"
viewBox="0 0 1706.66 1706.66"
 xmlns:xlink="http://www.w3.org/1999/xlink"
 xmlns:xodm="http://www.corel.com/coreldraw/odm/2003">
 <defs>
  <style type="text/css">
   <![CDATA[
    .fil0 {fill:#0E9AA7}
    .fil4 {fill:#333333}
    .fil1 {fill:#CED07D}
    .fil2 {fill:#FE6F69}
    .fil3 {fill:#FFCB5B}
   ]]>
  </style>
 </defs>
 <g id="Layer_x0020_1">
  <metadata id="CorelCorpID_0Corel-Layer"/>
  <polygon class="fil0" points="455.07,522.71 534.65,522.71 643.54,522.71 643.54,484.52 352.3,484.52 352.3,522.71 "/>
  <path class="fil1" d="M514.51 562.71l-39.58 0 0 52.36c6.26,-5.48 10.91,-10.7 19.86,-10.7 8.94,0 13.37,5.14 19.72,10.7l0 -52.36z"/>
  <path class="fil2" d="M554.65 562.71l0 96.11c0,17.13 -20.16,26.26 -33.06,15.14l-26.67 -23.06c-12.8,11.06 -27.94,27.92 -39.86,27.92 -11.09,0 -20,-8.96 -20,-20l0 -96.11 -82.78 0 0 213.06 291.25 0 0 -213.06 -88.89 0z"/>
  <polygon class="fil0" points="1166.46,588.54 1166.46,815.21 1602.27,815.22 1466.31,588.54 "/>
  <path class="fil1" d="M1146.46 855.2c-10.97,0 -20,-8.89 -20,-20l0 -266.66c0,-11.11 9.03,-20 20,-20l295.8 0 -46.92 -78.19 -382.5 -0 0 409.3c0,25 -10.37,47.62 -27.03,63.79 -16.02,15.61 -37.91,25.24 -62,25.24l-762.08 0 0 154.86c2.55,16.64 15.26,72.43 46.67,67.91l102.09 -0.28c4.23,-36.37 19.96,-69.25 43.43,-94.94 31.22,-34.24 76.15,-55.75 126.01,-55.75 78.59,0 144.95,53.46 164.63,125.91 2.2,8.04 3.82,16.32 4.82,24.78l512.91 0c4.23,-36.37 19.96,-69.25 43.43,-94.94 31.22,-34.24 76.15,-55.75 126.01,-55.75 79.33,0 146.21,54.48 165.17,127.98 1.92,7.39 3.36,14.97 4.27,22.71l102.08 0.28c32.19,4.97 45.87,-57.37 46.67,-67.91l0 -27.92 -51.11 0c-26.25,0 -47.64,-20.28 -47.64,-45.28l0 -67.22c0,-25 21.39,-45.28 47.64,-45.28l51.11 0 0 -43.19 -23.67 -39.44 -479.8 0zm67.78 89.31c-26.3,0 -26.3,-40 0,-40l129.03 0c26.24,0 26.39,40 0,40l-129.03 0z"/>
  <path class="fil3" d="M791.6 422.99l103.19 0c26.26,0 26.43,40 0,40l-103.19 0c-26.36,0 -26.36,-40 0,-40zm0 75.28l103.19 0c26.26,0 26.43,40 0,40l-103.19 0c-26.36,0 -26.36,-40 0,-40zm181.1 381.67l0 -499.3c0,-26.94 -21.94,-48.89 -48.75,-48.89l-851.8 0 0 0.14c-26.94,0 -48.89,21.94 -48.89,48.89l0 499.02c0,26.94 21.94,48.89 48.89,48.89l851.8 0c26.94,0 48.75,-21.94 48.75,-48.75zm-289.16 -415.41l0 331.25c0,11.11 -8.89,20 -20,20l-331.25 0c-11.11,0 -20,-8.89 -20,-20l0 -331.25c0,-11.11 8.89,-20 20,-20l331.25 0c11.11,0 20,8.89 20,20zm-479.17 332.78c26.36,0 26.36,40 0,40l-103.2 0c-26.36,0 -26.36,-40 0,-40l103.2 0zm0 -75.28c26.36,0 26.36,40 0,40l-103.2 0c-26.36,0 -26.36,-40 0,-40l103.2 0z"/>
  <path class="fil0" d="M1331.73 1266.87c73.66,0 73.39,-111.53 0,-111.53 -73.49,0 -73.44,111.53 0,111.53z"/>
  <path class="fil2" d="M1331.73 1115.2c52.92,0 95.83,42.92 95.83,95.83 -0.14,52.78 -43.06,95.83 -95.83,95.83 -52.78,0 -95.83,-42.92 -95.83,-95.83 0,-52.78 42.92,-95.83 95.83,-95.83zm130.56 95.83c-0.08,-71.88 -58.66,-130.41 -130.56,-130.41 -71.9,0 -130.48,58.53 -130.56,130.41 0,0.05 0,0.09 0,0.14 0.08,71.88 58.66,130.41 130.56,130.41 71.9,0 130.48,-58.53 130.56,-130.41 0,-0.05 0,-0.09 0,-0.14z"/>
  <path class="fil2" d="M1591.31 983.12l0 67.22c0,9.19 41.22,5.28 58.47,5.28l0 -77.78 -50.97 0c-4.31,0 -7.5,2.78 -7.5,5.28z"/>
  <path class="fil0" d="M479.93 1266.87c73.52,0 73.45,-111.53 0,-111.53 -73.49,0 -73.44,111.53 0,111.53z"/>
  <path class="fil2" d="M479.93 1115.2c52.78,0 95.83,42.92 95.83,95.83 -0,52.78 -43.06,95.83 -95.83,95.83 -52.78,0 -95.83,-42.92 -95.83,-95.83 0,-52.78 42.92,-95.83 95.83,-95.83zm130.56 95.83c-0.08,-71.88 -58.66,-130.41 -130.56,-130.41 -71.9,0 -130.48,58.53 -130.56,130.41 0,0.05 0,0.09 0,0.14 0.08,71.88 58.66,130.41 130.56,130.41 71.9,0 130.48,-58.53 130.56,-130.41 0,-0.05 0,-0.09 0,-0.14z"/>
  <path class="fil4" d="M1686.59 1112.29l-71.11 0c-26.25,0 -47.64,-20.28 -47.64,-45.28l0 -67.22c0,-25 21.39,-45.28 47.64,-45.28l71.11 0c10.97,0 20,9.03 20,20l0 117.78c0,11.11 -9.03,20 -20,20zm-71.11 -117.78c-4.31,0 -7.5,2.78 -7.5,5.28l0 67.22c0,9.19 41.22,5.28 58.47,5.28l0 -77.78 -50.97 0z"/>
  <path class="fil4" d="M1654.37 871.87l-491.25 0c-10.97,0 -20,-8.89 -20,-20l0 -266.66c0,-11.11 9.03,-20 20,-20l331.25 0c7.08,0 13.47,3.75 17.22,9.72l160 266.67c8.01,13.2 -1.57,30.28 -17.22,30.28zm-471.25 -40l435.83 0 -135.97 -226.67 -299.86 0 0 226.67z"/>
  <path class="fil4" d="M496.6 1398.26c-94.03,0 -170.56,-76.53 -170.56,-170.56 0,-94.03 76.53,-170.56 170.56,-170.56 94.03,0 170.56,76.53 170.56,170.56 0,94.03 -76.53,170.56 -170.56,170.56zm0 -301.11c-71.94,0 -130.56,58.61 -130.56,130.56 0,71.94 58.61,130.56 130.56,130.56 71.94,0 130.56,-58.61 130.56,-130.56 0,-71.94 -58.61,-130.56 -130.56,-130.56z"/>
  <path class="fil4" d="M1348.4 1398.26c-94.03,0 -170.56,-76.53 -170.56,-170.56 0,-94.03 76.53,-170.56 170.56,-170.56 94.03,0 170.56,76.53 170.56,170.56 0,94.03 -76.53,170.56 -170.56,170.56zm0 -301.11c-71.94,0 -130.56,58.61 -130.56,130.56 0,71.94 58.61,130.56 130.56,130.56 71.94,0 130.56,-58.61 130.56,-130.56 0,-71.94 -58.61,-130.56 -130.56,-130.56z"/>
  <path class="fil4" d="M88.82 985.2c-49.03,0 -88.89,-39.86 -88.89,-88.89l0 -499.02c0,-49.03 39.86,-88.89 88.89,-88.89l851.8 0c49.03,0 88.89,39.86 88.89,88.89l0 499.02c0,49.03 -39.86,88.89 -88.89,88.89l-851.8 0zm0 -636.67c-26.94,0 -48.89,21.94 -48.89,48.89l0 499.02c0,26.94 21.94,48.89 48.89,48.89l851.8 0c26.94,0 48.75,-21.94 48.75,-48.75l0 -499.3c0,-26.94 -21.94,-48.89 -48.75,-48.89l-851.8 0 0 0.14z"/>
  <path class="fil4" d="M1348.4 1323.54c-52.78,0 -95.83,-42.92 -95.83,-95.83 0,-52.78 42.92,-95.83 95.83,-95.83 52.92,0 95.83,42.92 95.83,95.83 -0.14,52.78 -43.06,95.83 -95.83,95.83zm0 -151.53c-73.49,0 -73.44,111.53 0,111.53 73.66,0 73.39,-111.53 0,-111.53z"/>
  <path class="fil4" d="M496.6 1323.54c-52.78,0 -95.83,-42.92 -95.83,-95.83 0,-52.78 42.92,-95.83 95.83,-95.83 52.78,0 95.83,42.92 95.83,95.83 -0,52.78 -43.06,95.83 -95.83,95.83zm0 -151.53c-73.49,0 -73.44,111.53 0,111.53 73.52,0 73.45,-111.53 0,-111.53z"/>
  <path class="fil4" d="M1359.93 961.18l-129.03 0c-26.3,0 -26.3,-40 0,-40l129.03 0c26.24,0 26.39,40 0,40z"/>
  <path class="fil4" d="M680.21 832.43l-331.25 0c-11.11,0 -20,-8.89 -20,-20l0 -331.25c0,-11.11 8.89,-20 20,-20l331.25 0c11.11,0 20,8.89 20,20l0 331.25c0,11.11 -8.89,20 -20,20zm-311.25 -40l291.25 0 0 -291.25 -291.25 0 0 291.25z"/>
  <path class="fil4" d="M680.21 579.37l-331.25 0c-26.36,0 -26.36,-40 0,-40l331.25 0c26.36,0 26.36,40 0,40z"/>
  <path class="fil4" d="M471.74 695.48c-11.09,0 -20,-8.96 -20,-20l0 -116.11c0,-11.11 8.89,-20 20,-20l79.58 0c11.11,0 20,8.89 20,20l0 116.11c0,17.13 -20.16,26.26 -33.06,15.14l-26.67 -23.06c-12.8,11.06 -27.94,27.92 -39.86,27.92zm39.72 -74.44c8.94,0 13.37,5.14 19.72,10.7l0 -52.36 -39.58 0 0 52.36c6.26,-5.48 10.91,-10.7 19.86,-10.7z"/>
  <path class="fil4" d="M911.45 554.93l-103.19 0c-26.36,0 -26.36,-40 0,-40l103.19 0c26.26,0 26.43,40 0,40z"/>
  <path class="fil4" d="M911.45 479.65l-103.19 0c-26.36,0 -26.36,-40 0,-40l103.19 0c26.26,0 26.43,40 0,40z"/>
  <path class="fil4" d="M221.04 778.68l-103.2 0c-26.36,0 -26.36,-40 0,-40l103.2 0c26.36,0 26.36,40 0,40z"/>
  <path class="fil4" d="M221.04 853.95l-103.2 0c-26.36,0 -26.36,-40 0,-40l103.2 0c26.36,0 26.36,40 0,40z"/>
  <path class="fil4" d="M1624.23 1248.4l-125.28 -0.56c-10.97,0 -20,-9.03 -20,-20 0,-71.94 -58.61,-130.56 -130.56,-130.56 -71.94,0 -130.56,58.61 -130.56,130.56 0,10.97 -9.03,20 -20,20l-550.69 0c-11.11,0 -20,-9.03 -20,-20 0,-71.94 -58.61,-130.56 -130.56,-130.56 -71.94,0 -130.56,58.61 -130.56,130.56 0,10.97 -8.89,20 -20,20l-116.25 0c-73.52,4.88 -91.39,-87.5 -91.39,-106.11l0 -176.39c0,-10.97 8.89,-20 20,-20l782.07 0c26.94,0 48.89,-21.94 48.89,-48.89l0 -429.58c0,-11.11 9.03,-20 20,-20l414.03 0c7.08,0 13.47,3.75 17.22,9.72l263.19 438.74c1.81,3.06 2.92,6.67 2.92,10.28l-0.14 238.47c-3.42,23.53 -21.63,104.31 -82.36,104.31zm-1445.83 -108.19c2.55,16.64 15.26,72.43 46.67,67.91l102.09 -0.28c9.86,-84.72 82.08,-150.56 169.44,-150.56 87.36,0 159.44,65.97 169.44,150.56l512.91 0c9.86,-84.72 82.08,-150.56 169.44,-150.56 87.22,0 159.44,65.97 169.44,150.56l102.08 0.28c32.19,4.97 45.87,-57.37 46.67,-67.91l0 -228.89 -254.58 -424.3 -382.64 -0 0 409.44c0,49.03 -39.86,88.89 -88.89,88.89l-762.08 0 0 154.86z"/>
 </g>
</svg>
